<svg xmlns="http://www.w3.org/2000/svg"
    xmlns:xlink="http://www.w3.org/1999/xlink" viewBox="0 0 1728.7 1470.75">
    <defs>
        <style>.cls-1{fill:url(#Sfumatura_senza_nome_42);}.cls-2{fill:#fff;}</style>
        <linearGradient id="Sfumatura_senza_nome_42" x1="240.67" y1="735.53" x2="1424.35" y2="735.53" gradientUnits="userSpaceOnUse">
            <stop offset="0" stop-color="#39b54a"/>
            <stop offset="0.51" stop-color="#fff"/>
            <stop offset="1" stop-color="#ed1c24"/>
        </linearGradient>
    </defs>
    <g id="Livello_2" data-name="Livello 2">
        <g id="Livello_1-2" data-name="Livello 1">
            <path class="cls-1" d="M157.31,1328.25l100-565.49h755.73a179.36,179.36,0,0,0,37.47-3.94,187.36,187.36,0,0,0,52.42-19.9,237.22,237.22,0,0,0,70.12-61.1,185.65,185.65,0,0,0,27.51-50.44,170.36,170.36,0,0,0,9.81-57.31,167.16,167.16,0,0,0-3-31.46,155.89,155.89,0,0,0-16.15-45.26,164.94,164.94,0,0,0-28.41-37.92,168.53,168.53,0,0,0-24.23-20.22,155.92,155.92,0,0,0-43.36-20.78,162.55,162.55,0,0,0-47-6.8H320l47.67-264.82h890.21a345.74,345.74,0,0,1,64.52,5.86,286.64,286.64,0,0,1,84.26,29.94c26.74,14.56,51.11,33.16,74.47,56.85A342.51,342.51,0,0,1,1521.76,285a292.77,292.77,0,0,1,38.17,81.47c8.69,29.69,12.91,60.66,12.92,94.65a374.69,374.69,0,0,1-28,143,443.89,443.89,0,0,1-48.78,88.14c-20.78,29.43-46.18,58.65-75.49,86.85a649.42,649.42,0,0,1-80.23,66.17c-39.5,27.32-80.5,48-121.84,61.48a403,403,0,0,1-126.42,20H575.76l-72,401.41Z"/>
            <path d="M1257.85,153.31h0a334.7,334.7,0,0,1,62.54,5.68,275.74,275.74,0,0,1,81.21,28.84c25.83,14.06,49.39,32.06,72,55h0a332.2,332.2,0,0,1,39.4,48,282.59,282.59,0,0,1,36.82,78.58c8.41,28.73,12.5,58.73,12.5,91.7a364.7,364.7,0,0,1-27.2,139.09,433.52,433.52,0,0,1-47.64,86c-20.39,28.89-45.35,57.61-74.19,85.34a639.93,639.93,0,0,1-78.92,65.11c-38.67,26.73-78.75,47-119.12,60.12a392.44,392.44,0,0,1-123.17,19.49H567l-3.11,17.29L495,1317.76H169.83l96.32-544.5h747a189.72,189.72,0,0,0,39.6-4.17,198,198,0,0,0,55.37-21,247.69,247.69,0,0,0,73.35-63.91,196.05,196.05,0,0,0,29-53.27,180.82,180.82,0,0,0,10.42-60.82,177.65,177.65,0,0,0-3.14-33.44,166.1,166.1,0,0,0-17.22-48.29,175.55,175.55,0,0,0-30.17-40.3l0,0,0,0a179.27,179.27,0,0,0-25.7-21.42,166.35,166.35,0,0,0-46.25-22.18,173.22,173.22,0,0,0-50-7.25H332.53l43.89-243.82h881.43m0-21h-899L307.41,418.13h740.91a152.25,152.25,0,0,1,44,6.36,146.23,146.23,0,0,1,40.45,19.39,156.79,156.79,0,0,1,22.69,18.93l0,0a155.15,155.15,0,0,1,26.61,35.52,146.22,146.22,0,0,1,15.07,42.23,156.34,156.34,0,0,1,2.76,29.49,161,161,0,0,1-9.21,53.8,175.2,175.2,0,0,1-26,47.58,226.36,226.36,0,0,1-66.89,58.29,176.89,176.89,0,0,1-49.48,18.8,169.13,169.13,0,0,1-35.24,3.71H248.54l-103.75,586.5H512.52l72-401.42h507.57a415.52,415.52,0,0,0,129.67-20.52c42.09-13.72,83.49-34.42,124.56-62.82a658,658,0,0,0,81.54-67.24q45.4-43.68,76.79-88.37c21-29.77,37.53-59.79,49.93-90.23a385.6,385.6,0,0,0,28.75-147c0-35.28-4.56-67.58-13.34-97.61a304.53,304.53,0,0,0-39.52-84.34,349.89,349.89,0,0,0-41.93-51.14l0,0c-24.3-24.63-49.83-43.94-76.94-58.71a297.88,297.88,0,0,0-87.31-31,354,354,0,0,0-66.48-6.05Z"/>
            <path d="M162,551.06c33.17-184.27,66.1-367.15,99.2-551h9.52Q768.92.07,1267.11,0C1388-.08,1493.6,38.67,1582,121.81c80.41,75.66,130,167.62,142.91,277.88C1742.09,547.16,1700.69,678.42,1611,795c-69.94,90.88-154.82,164.68-257.88,216.33-78.76,39.47-162.38,58.83-250.46,58.87q-191.31.06-382.62,0H708.88q-36,200.52-71.9,400.54H0q75.24-425.26,150.53-850.83h11.64q426.84,0,853.67.25c26.88,0,44.32-13.38,58.74-33.32,2.78-3.85,4.2-9,5.12-13.78,1.85-9.58-5.39-19.62-15.07-21.25a85.38,85.38,0,0,0-14-.73q-437.35-.06-874.69,0ZM25.53,1449.88H608.12a27.23,27.23,0,0,1,3.5,0c5.27.69,7.62-1.14,8.59-6.84,5.46-32.17,11.43-64.25,17.19-96.37q25.77-143.7,51.33-287.42c1.44-8.22,4.19-10.59,12.66-10.59,139.5.12,279,.19,418.49-.55,53.73-.29,106-10.73,156.82-28.15,79-27.06,148.17-70.61,210.65-125.27,70.7-61.86,131.09-132.11,171.07-217.94,53.72-115.31,65.5-234.5,26.88-356.56C1640,177,1493.27,20.55,1269.63,21.15c-326.87.88-653.74.23-980.62.23h-9.8L187.63,530h12.93q429,0,858-.39c24.59,0,49.65,22.67,41.29,53.22-8,29-44.79,58.08-74.89,58.08q-422,0-844,0H168.65C120.89,910.88,73.3,1179.86,25.53,1449.88Z"/>
            <path class="cls-2" d="M25.53,1449.88c47.77-270,95.36-539,143.12-809H181q422,0,844,0c30.1,0,66.94-29,74.89-58.08,8.36-30.55-16.7-53.27-41.29-53.22q-429,.92-858,.39H187.63L279.21,21.38H289c326.88,0,653.75.65,980.62-.23C1493.27,20.55,1640,177,1685.3,320.21c38.62,122.06,26.84,241.25-26.88,356.56-40,85.83-100.37,156.08-171.07,217.94-62.48,54.66-131.68,98.21-210.65,125.27-50.84,17.42-103.09,27.86-156.82,28.15-139.5.74-279,.67-418.49.55-8.47,0-11.22,2.37-12.66,10.59Q663.43,1203,637.4,1346.69c-5.76,32.12-11.73,64.2-17.19,96.37-1,5.7-3.32,7.53-8.59,6.84a27.23,27.23,0,0,0-3.5,0H25.53ZM585,937.43h508.38c48,0,95-7.08,139.64-24.57C1369.85,859.29,1472.23,766,1541,637.06c42.14-79,52.06-164.24,34.27-252.32-23.57-116.7-139.33-253-316.42-252.43-296.83.89-593.66.24-890.49.26-3.05,0-6.11.28-9.35.43-17.22,95.65-34.26,190.35-51.44,285.85h741.38c63.5,0,122,41.32,142.1,101.5,18.5,55.31,7.84,106.47-27.47,151.62-40.56,51.87-92.78,80.5-161,80.23-247.21-1-494.43-.38-741.64-.38h-12l-103.7,586.09h368Q549.06,1137.86,585,937.43Z"/>
        </g>
    </g>
</svg>